<?xml version="1.0" encoding="UTF-8" standalone="no"?>
<!-- Created with Inkscape (http://www.inkscape.org/) -->

<svg
   xmlns:dc="http://purl.org/dc/elements/1.1/"
   xmlns:cc="http://creativecommons.org/ns#"
   xmlns:rdf="http://www.w3.org/1999/02/22-rdf-syntax-ns#"
   xmlns:svg="http://www.w3.org/2000/svg"
   xmlns="http://www.w3.org/2000/svg"
   xmlns:sodipodi="http://sodipodi.sourceforge.net/DTD/sodipodi-0.dtd"
   xmlns:inkscape="http://www.inkscape.org/namespaces/inkscape"
   width="120"
   height="120"
   viewBox="0 0 120 120"
   id="svg4431"
   version="1.1"
   inkscape:version="0.91 r13725"
   sodipodi:docname="github.svg">
  <defs
     id="defs4433" />
  <sodipodi:namedview
     id="base"
     pagecolor="#ffffff"
     bordercolor="#666666"
     borderopacity="1.0"
     inkscape:pageopacity="0.0"
     inkscape:pageshadow="2"
     inkscape:zoom="2.8"
     inkscape:cx="89.857556"
     inkscape:cy="83.028216"
     inkscape:document-units="px"
     inkscape:current-layer="layer1"
     showgrid="false"
     units="px"
     inkscape:snap-bbox="true"
     inkscape:bbox-paths="true"
     inkscape:bbox-nodes="false"
     inkscape:snap-bbox-edge-midpoints="false"
     inkscape:snap-bbox-midpoints="true"
     inkscape:window-width="1920"
     inkscape:window-height="1022"
     inkscape:window-x="0"
     inkscape:window-y="29"
     inkscape:window-maximized="1" />
  <metadata
     id="metadata4436">
    <rdf:RDF>
      <cc:Work
         rdf:about="">
        <dc:format>image/svg+xml</dc:format>
        <dc:type
           rdf:resource="http://purl.org/dc/dcmitype/StillImage" />
        <dc:title></dc:title>
      </cc:Work>
    </rdf:RDF>
  </metadata>
  <g
     inkscape:label="Livello 1"
     inkscape:groupmode="layer"
     id="layer1"
     transform="translate(0,-932.36216)">
    <rect
       style="fill:#000000;fill-opacity:1;stroke:none;stroke-opacity:1"
       id="rect4985"
       width="2.5"
       x="66.071426"
       y="984.14789" />
    <path
       inkscape:connector-curvature="0"
       id="path16"
       style="fill:#1b1817;fill-opacity:1;fill-rule:evenodd;stroke:none"
       d="M 59.99448,933.84319 C 26.86639,933.84319 0,960.70574 0,993.84507 c 0,26.50543 17.19022,48.99563 41.03257,56.93343 3.00194,0.5487 4.09589,-1.3039 4.09589,-2.8951 0,-1.4256 -0.0516,-5.1974 -0.081,-10.2029 -16.68928,3.6244 -20.21056,-8.0444 -20.21056,-8.0444 -2.72937,-6.9321 -6.66319,-8.7773 -6.66319,-8.7773 -5.44768,-3.7202 0.41253,-3.6465 0.41253,-3.6465 6.02229,0.4234 9.18998,6.1842 9.18998,6.1842 5.35191,9.168 14.04463,6.5195 17.46278,4.9837 0.54513,-3.8749 2.09583,-6.5195 3.80859,-8.0188 -13.3227,-1.5176 -27.3305,-6.6631 -27.3305,-29.65463 0,-6.5528 2.33893,-11.9046 6.17699,-16.1 -0.6188,-1.51759 -2.6778,-7.61722 0.58934,-15.87884 0,0 5.03514,-1.61331 16.49774,6.14737 4.78468,-1.32954 9.91928,-1.99255 15.02072,-2.01848 5.097759,0.0295 10.22868,0.68894 15.020719,2.01848 11.455231,-7.76068 16.483011,-6.14737 16.483011,-6.14737 3.2745,8.26162 1.21551,14.36125 0.60039,15.87884 3.84542,4.1954 6.16593,9.5472 6.16593,16.1 0,23.05053 -14.02989,28.12233 -27.3931,29.60683 2.151079,1.8526 4.070099,5.5139 4.070099,11.1126 0,8.0185 -0.0737,14.4903 -0.0737,16.4572 0,1.6059 1.08291,3.4733 4.12536,2.8878 C 102.82452,1042.8186 120,1020.3466 120,993.84507 120,960.70574 93.13362,933.84319 59.99448,933.84319" />
  </g>
</svg>
