<?xml version="1.0" encoding="UTF-8" standalone="no"?>
<!-- Created with Inkscape (http://www.inkscape.org/) -->

<svg
   xmlns:dc="http://purl.org/dc/elements/1.1/"
   xmlns:cc="http://creativecommons.org/ns#"
   xmlns:rdf="http://www.w3.org/1999/02/22-rdf-syntax-ns#"
   xmlns:svg="http://www.w3.org/2000/svg"
   xmlns="http://www.w3.org/2000/svg"
   xmlns:sodipodi="http://sodipodi.sourceforge.net/DTD/sodipodi-0.dtd"
   xmlns:inkscape="http://www.inkscape.org/namespaces/inkscape"
   width="120"
   height="120"
   viewBox="0 0 120 120"
   id="svg4431"
   version="1.1"
   inkscape:version="0.91 r13725"
   sodipodi:docname="LinkedIn.svg">
  <defs
     id="defs4433" />
  <sodipodi:namedview
     id="base"
     pagecolor="#ffffff"
     bordercolor="#666666"
     borderopacity="1.0"
     inkscape:pageopacity="0.0"
     inkscape:pageshadow="2"
     inkscape:zoom="3.959798"
     inkscape:cx="62.093425"
     inkscape:cy="55.007525"
     inkscape:document-units="px"
     inkscape:current-layer="layer1"
     showgrid="false"
     units="px"
     inkscape:snap-bbox="true"
     inkscape:bbox-paths="true"
     inkscape:bbox-nodes="false"
     inkscape:snap-bbox-edge-midpoints="false"
     inkscape:snap-bbox-midpoints="true"
     inkscape:window-width="1920"
     inkscape:window-height="1022"
     inkscape:window-x="0"
     inkscape:window-y="29"
     inkscape:window-maximized="1" />
  <metadata
     id="metadata4436">
    <rdf:RDF>
      <cc:Work
         rdf:about="">
        <dc:format>image/svg+xml</dc:format>
        <dc:type
           rdf:resource="http://purl.org/dc/dcmitype/StillImage" />
        <dc:title />
      </cc:Work>
    </rdf:RDF>
  </metadata>
  <g
     inkscape:label="Livello 1"
     inkscape:groupmode="layer"
     id="layer1"
     transform="translate(0,-932.36216)">
    <rect
       style="fill:#000000;fill-opacity:1;stroke:none;stroke-opacity:1"
       id="rect4985"
       width="2.5"
       x="66.071426"
       y="984.14789" />
    <circle
       style="fill:#1686b0;fill-opacity:1;stroke:none;stroke-opacity:1"
       id="path5584"
       cx="-60"
       cy="992.36218"
       transform="scale(-1,1)"
       r="60" />
    <path
       id="path4141"
       d="m 29.60381,970.06381 q 0,-2.934 2.0538,-4.8411 2.0538,-1.90711 5.33987,-1.90711 3.2274,0 5.22252,1.87778 2.05379,1.93643 2.05379,5.04646 0,2.81663 -1.99511,4.6944 -2.0538,1.93644 -5.39856,1.93644 l -0.0587,0 q -3.22739,0 -5.22251,-1.93644 -1.99512,-1.93646 -1.99512,-4.87043 z m 0.76284,51.34499 0,-39.19823 13.02695,0 0,39.19823 -13.02695,0 z m 20.24457,0 13.02695,0 0,-21.88773 q 0,-2.0538 0.46944,-3.1687 0.82151,-1.9951 2.49389,-3.3741 1.67238,-1.379 4.19561,-1.379 6.57216,0 6.57216,8.86073 l 0,20.9488 13.02694,0 0,-22.47453 q 0,-8.6846 -4.1076,-13.1736 -4.10759,-4.489 -10.85578,-4.489 -7.56971,0 -11.79466,6.5134 l 0,0.1174 -0.0587,0 0.0587,-0.1174 0,-5.5745 -13.02695,0 q 0.11736,1.8777 0.11736,11.6772 0,9.79963 -0.11736,27.52103 z"
       inkscape:connector-curvature="0"
       style="fill:#ffffff" />
  </g>
</svg>
