<?xml version="1.0" encoding="UTF-8" standalone="no"?>
<!-- Created with Inkscape (http://www.inkscape.org/) -->

<svg
   xmlns:dc="http://purl.org/dc/elements/1.1/"
   xmlns:cc="http://creativecommons.org/ns#"
   xmlns:rdf="http://www.w3.org/1999/02/22-rdf-syntax-ns#"
   xmlns:svg="http://www.w3.org/2000/svg"
   xmlns="http://www.w3.org/2000/svg"
   xmlns:xlink="http://www.w3.org/1999/xlink"
   xmlns:sodipodi="http://sodipodi.sourceforge.net/DTD/sodipodi-0.dtd"
   xmlns:inkscape="http://www.inkscape.org/namespaces/inkscape"
   width="120"
   height="120"
   viewBox="0 0 120 120"
   id="svg4431"
   version="1.1"
   inkscape:version="0.91 r13725"
   sodipodi:docname="YouTube.svg">
  <defs
     id="defs4433">
    <linearGradient
       gradientTransform="translate(-2.8571431e-8,-4.2424286e-5)"
       inkscape:collect="always"
       xlink:href="#linearGradient3768"
       id="linearGradient5846"
       x1="-61.785713"
       y1="932.36218"
       x2="-60"
       y2="1052.3622"
       gradientUnits="userSpaceOnUse" />
    <linearGradient
       id="linearGradient3768">
      <stop
         id="stop3770"
         offset="0"
         style="stop-color:#39e9ff;stop-opacity:1;" />
      <stop
         id="stop3772"
         offset="1"
         style="stop-color:#4db2cf;stop-opacity:1;" />
    </linearGradient>
  </defs>
  <sodipodi:namedview
     id="base"
     pagecolor="#ffffff"
     bordercolor="#666666"
     borderopacity="1.0"
     inkscape:pageopacity="0.0"
     inkscape:pageshadow="2"
     inkscape:zoom="2.8"
     inkscape:cx="20.571842"
     inkscape:cy="83.028216"
     inkscape:document-units="px"
     inkscape:current-layer="layer1"
     showgrid="false"
     units="px"
     inkscape:snap-bbox="true"
     inkscape:bbox-paths="true"
     inkscape:bbox-nodes="false"
     inkscape:snap-bbox-edge-midpoints="false"
     inkscape:snap-bbox-midpoints="true"
     inkscape:window-width="1920"
     inkscape:window-height="1022"
     inkscape:window-x="0"
     inkscape:window-y="29"
     inkscape:window-maximized="1" />
  <metadata
     id="metadata4436">
    <rdf:RDF>
      <cc:Work
         rdf:about="">
        <dc:format>image/svg+xml</dc:format>
        <dc:type
           rdf:resource="http://purl.org/dc/dcmitype/StillImage" />
        <dc:title></dc:title>
      </cc:Work>
    </rdf:RDF>
  </metadata>
  <g
     inkscape:label="Livello 1"
     inkscape:groupmode="layer"
     id="layer1"
     transform="translate(0,-932.36216)">
    <rect
       height="0"
       style="fill:#000000;fill-opacity:1;stroke:none;stroke-opacity:1"
       id="rect4985"
       width="2.5"
       x="66.071426"
       y="984.14783" />
    <circle
       style="fill:url(#linearGradient5846);fill-opacity:1;stroke:none;stroke-opacity:1"
       id="path5584"
       cx="-60"
       cy="992.36212"
       transform="scale(-1,1)"
       r="60" />
    <path
       inkscape:connector-curvature="0"
       id="path3038"
       d="m 41.756025,969.46041 c -13.080231,0 -23.633571,10.21323 -23.633571,22.90178 0,12.68861 10.55334,22.90181 23.633571,22.90181 l 23.345361,0 0,-15.36309 -14.237792,0 -3.285634,3.25549 c 0.264587,0.5274 0.461138,1.0858 0.461138,1.7133 0,2.2145 -1.857636,3.9978 -4.092641,3.9978 -2.235018,0 -4.035007,-1.7833 -4.035007,-3.9978 0,-2.2144 1.799989,-3.9978 4.035007,-3.9978 0.626671,0 1.194583,0.1492 1.729281,0.3998 l 4.092654,-3.99791 15.332994,0 0,-5.19715 -28.533218,0 c -0.556447,1.55563 -1.985964,2.68423 -3.746784,2.68423 -2.235018,0 -4.092654,-1.78339 -4.092654,-3.9978 0,-2.21443 1.857636,-3.99782 4.092654,-3.99782 1.76082,0 3.190337,1.1286 3.746784,2.68425 l 28.533218,0 0,-0.4569 -1.671634,-1.65623 -18.157505,0 -3.228013,-3.19826 -2.01749,-1.9989 -2.36336,-2.3987 -0.05759,0 c -0.247798,0.0977 -0.526349,0.17134 -0.807007,0.17134 -1.199505,0 -2.190432,-0.98178 -2.190432,-2.17024 0,-1.18848 0.990927,-2.11314 2.190432,-2.11314 1.199503,0 2.190431,0.92466 2.190431,2.11314 0,0.27806 -0.07446,0.55405 -0.172836,0.79956 -0.0078,0.0167 0.0078,0.0405 0,0.0571 l 2.421007,2.39869 2.017489,1.9989 2.709216,2.68425 15.794158,0 -2.882143,-2.85558 -10.145152,0 -4.438496,-4.3976 -0.05759,0 c -0.246253,0.0961 -0.526349,0.17134 -0.807007,0.17134 -1.199504,0 -2.132784,-0.98178 -2.132784,-2.17024 0,-1.18848 0.93328,-2.17026 2.132784,-2.17026 1.199504,0 2.190431,0.98178 2.190431,2.17026 0,0.27806 -0.07603,0.55558 -0.172835,0.79956 -0.0078,0.0166 0.0078,0.0406 0,0.0571 l 3.977359,3.88358 10.145151,0 5.533713,5.48273 0,-17.19062 -23.345374,0 z m 26.976865,0 0,19.98909 0,2.62714 0,23.18736 9.511072,0 c 13.080231,0 23.633578,-10.2132 23.633578,-22.90181 0,-12.68855 -10.553347,-22.90178 -23.633578,-22.90178 l -9.511072,0 z"
       style="display:inline;fill:#ffffff;fill-opacity:1"
       inkscape:export-filename="/home/gabmus/Video/Tech Pills/pill3000x.png"
       inkscape:export-xdpi="4219.7144"
       inkscape:export-ydpi="4219.7144" />
  </g>
</svg>
